# xmcd
#
# Track frame offsets:
#	150
#	15354
#	28822
#	43665
#	56745
#	70948
#	85360
#	102442
#	117877
#	132209
#	147668
#	167542
#	182756
#	197663
#	214952
#	244419
#
# Disc length: 3273 seconds
#
# Revision: 1
# Processed by: cddbd v1.5.2PL0 Copyright (c) Steve Scherf et al.
# Submitted via: audiograbber 1.83.01
#
DISCID=ed0cc710
DTITLE=Various Artist - CBE107
DYEAR=1900
DGENRE=Karaoke
TTITLE0=Greenwood, Lee - God Bless The USA 
TTITLE1=Frickie, Janie - He's A Heartache 
TTITLE2=Judds, The - Mama He's Crazy 
TTITLE3=Judds, The - Girl's Night Out 
TTITLE4=Travis, Randy - Diggin' Up Bones 
TTITLE5=Strait, George - Ocean Front Property 
TTITLE6=Travis, Randy - Forever and Ever, Amen 
TTITLE7=Strait, George - All My Ex's Live In Texas 
TTITLE8=Mattea, Kathy - Eighteen Wheels And A Dozen Roses 
TTITLE9=Dunn, Holly - Daddy's Hands 
TTITLE10=Whitley, Keith - Don't Close Your Eyes 
TTITLE11=Forester Sisters, The - Men
TTITLE12=Yoakam, Dwight - Guitars and Cadillacs 
TTITLE13=Seals, Dan - Bop
TTITLE14=Judds, The - Love Is Alive 
TTITLE15=NONE - NONE
EXTD=
EXTT0=
EXTT1=
EXTT2=
EXTT3=
EXTT4=
EXTT5=
EXTT6=
EXTT7=
EXTT8=
EXTT9=
EXTT10=
EXTT11=
EXTT12=
EXTT13=
EXTT14=
EXTT15=Must be included to import 
PLAYORDER=
